<mxfile host="app.diagrams.net" modified="2021-05-06T05:41:48.956Z" agent="5.0 (Windows NT 10.0; Win64; x64) AppleWebKit/537.36 (KHTML, like Gecko) Chrome/90.0.4430.93 Safari/537.36 Edg/90.0.818.51" etag="xk2yBXHQc-MwYvpC0n3a" version="14.6.10" type="github">
  <diagram id="C5RBs43oDa-KdzZeNtuy" name="Page-1">
    <mxGraphModel dx="2190" dy="1036" grid="1" gridSize="10" guides="1" tooltips="1" connect="1" arrows="1" fold="1" page="1" pageScale="1" pageWidth="827" pageHeight="1169" math="0" shadow="0">
      <root>
        <mxCell id="WIyWlLk6GJQsqaUBKTNV-0" />
        <mxCell id="WIyWlLk6GJQsqaUBKTNV-1" parent="WIyWlLk6GJQsqaUBKTNV-0" />
        <mxCell id="p0wTK3unJ9bmpWkXyr8P-2" style="edgeStyle=orthogonalEdgeStyle;rounded=0;orthogonalLoop=1;jettySize=auto;html=1;exitX=0.5;exitY=1;exitDx=0;exitDy=0;entryX=0.5;entryY=0;entryDx=0;entryDy=0;" edge="1" parent="WIyWlLk6GJQsqaUBKTNV-1" source="p0wTK3unJ9bmpWkXyr8P-0" target="p0wTK3unJ9bmpWkXyr8P-1">
          <mxGeometry relative="1" as="geometry" />
        </mxCell>
        <mxCell id="p0wTK3unJ9bmpWkXyr8P-0" value="START" style="ellipse;whiteSpace=wrap;html=1;" vertex="1" parent="WIyWlLk6GJQsqaUBKTNV-1">
          <mxGeometry x="270" y="480" width="120" height="80" as="geometry" />
        </mxCell>
        <mxCell id="p0wTK3unJ9bmpWkXyr8P-6" style="edgeStyle=orthogonalEdgeStyle;rounded=0;orthogonalLoop=1;jettySize=auto;html=1;exitX=0.5;exitY=1;exitDx=0;exitDy=0;" edge="1" parent="WIyWlLk6GJQsqaUBKTNV-1" source="p0wTK3unJ9bmpWkXyr8P-1" target="p0wTK3unJ9bmpWkXyr8P-7">
          <mxGeometry relative="1" as="geometry">
            <mxPoint x="330" y="720" as="targetPoint" />
          </mxGeometry>
        </mxCell>
        <mxCell id="p0wTK3unJ9bmpWkXyr8P-17" style="edgeStyle=orthogonalEdgeStyle;rounded=0;orthogonalLoop=1;jettySize=auto;html=1;" edge="1" parent="WIyWlLk6GJQsqaUBKTNV-1" source="p0wTK3unJ9bmpWkXyr8P-1" target="p0wTK3unJ9bmpWkXyr8P-8">
          <mxGeometry relative="1" as="geometry" />
        </mxCell>
        <mxCell id="p0wTK3unJ9bmpWkXyr8P-18" style="edgeStyle=orthogonalEdgeStyle;rounded=0;orthogonalLoop=1;jettySize=auto;html=1;" edge="1" parent="WIyWlLk6GJQsqaUBKTNV-1" source="p0wTK3unJ9bmpWkXyr8P-1" target="p0wTK3unJ9bmpWkXyr8P-4">
          <mxGeometry relative="1" as="geometry" />
        </mxCell>
        <mxCell id="p0wTK3unJ9bmpWkXyr8P-19" style="edgeStyle=orthogonalEdgeStyle;rounded=0;orthogonalLoop=1;jettySize=auto;html=1;" edge="1" parent="WIyWlLk6GJQsqaUBKTNV-1" source="p0wTK3unJ9bmpWkXyr8P-1" target="p0wTK3unJ9bmpWkXyr8P-15">
          <mxGeometry relative="1" as="geometry" />
        </mxCell>
        <mxCell id="p0wTK3unJ9bmpWkXyr8P-20" style="edgeStyle=orthogonalEdgeStyle;rounded=0;orthogonalLoop=1;jettySize=auto;html=1;" edge="1" parent="WIyWlLk6GJQsqaUBKTNV-1" source="p0wTK3unJ9bmpWkXyr8P-1" target="p0wTK3unJ9bmpWkXyr8P-10">
          <mxGeometry relative="1" as="geometry" />
        </mxCell>
        <mxCell id="p0wTK3unJ9bmpWkXyr8P-1" value="Switch" style="rounded=0;whiteSpace=wrap;html=1;" vertex="1" parent="WIyWlLk6GJQsqaUBKTNV-1">
          <mxGeometry x="270" y="600" width="120" height="60" as="geometry" />
        </mxCell>
        <mxCell id="p0wTK3unJ9bmpWkXyr8P-4" value="NETWORK_LAYER_READY" style="rounded=0;whiteSpace=wrap;html=1;" vertex="1" parent="WIyWlLk6GJQsqaUBKTNV-1">
          <mxGeometry x="-80" y="660" width="160" height="80" as="geometry" />
        </mxCell>
        <mxCell id="p0wTK3unJ9bmpWkXyr8P-22" style="edgeStyle=orthogonalEdgeStyle;rounded=0;orthogonalLoop=1;jettySize=auto;html=1;" edge="1" parent="WIyWlLk6GJQsqaUBKTNV-1" source="p0wTK3unJ9bmpWkXyr8P-7" target="p0wTK3unJ9bmpWkXyr8P-21">
          <mxGeometry relative="1" as="geometry" />
        </mxCell>
        <mxCell id="p0wTK3unJ9bmpWkXyr8P-7" value="FRAME_RECEIVED" style="rounded=0;whiteSpace=wrap;html=1;" vertex="1" parent="WIyWlLk6GJQsqaUBKTNV-1">
          <mxGeometry x="255" y="750" width="150" height="80" as="geometry" />
        </mxCell>
        <mxCell id="p0wTK3unJ9bmpWkXyr8P-104" value="" style="edgeStyle=orthogonalEdgeStyle;rounded=0;orthogonalLoop=1;jettySize=auto;html=1;exitX=0;exitY=0.5;exitDx=0;exitDy=0;" edge="1" parent="WIyWlLk6GJQsqaUBKTNV-1" source="p0wTK3unJ9bmpWkXyr8P-4" target="p0wTK3unJ9bmpWkXyr8P-103">
          <mxGeometry relative="1" as="geometry">
            <mxPoint x="-117.5" y="710" as="sourcePoint" />
          </mxGeometry>
        </mxCell>
        <mxCell id="p0wTK3unJ9bmpWkXyr8P-112" value="" style="edgeStyle=orthogonalEdgeStyle;rounded=0;orthogonalLoop=1;jettySize=auto;html=1;" edge="1" parent="WIyWlLk6GJQsqaUBKTNV-1" source="p0wTK3unJ9bmpWkXyr8P-8" target="p0wTK3unJ9bmpWkXyr8P-111">
          <mxGeometry relative="1" as="geometry" />
        </mxCell>
        <mxCell id="p0wTK3unJ9bmpWkXyr8P-8" value="PHYSICAL_LAYER_READY" style="rounded=0;whiteSpace=wrap;html=1;" vertex="1" parent="WIyWlLk6GJQsqaUBKTNV-1">
          <mxGeometry x="-70" y="520" width="150" height="80" as="geometry" />
        </mxCell>
        <mxCell id="p0wTK3unJ9bmpWkXyr8P-85" style="edgeStyle=orthogonalEdgeStyle;rounded=0;orthogonalLoop=1;jettySize=auto;html=1;" edge="1" parent="WIyWlLk6GJQsqaUBKTNV-1" source="p0wTK3unJ9bmpWkXyr8P-10" target="p0wTK3unJ9bmpWkXyr8P-86">
          <mxGeometry relative="1" as="geometry">
            <mxPoint x="760" y="700" as="targetPoint" />
          </mxGeometry>
        </mxCell>
        <mxCell id="p0wTK3unJ9bmpWkXyr8P-10" value="ACK_TIMEOUT" style="rounded=0;whiteSpace=wrap;html=1;" vertex="1" parent="WIyWlLk6GJQsqaUBKTNV-1">
          <mxGeometry x="560" y="660" width="150" height="80" as="geometry" />
        </mxCell>
        <mxCell id="p0wTK3unJ9bmpWkXyr8P-92" value="" style="edgeStyle=orthogonalEdgeStyle;rounded=0;orthogonalLoop=1;jettySize=auto;html=1;" edge="1" parent="WIyWlLk6GJQsqaUBKTNV-1" source="p0wTK3unJ9bmpWkXyr8P-15" target="p0wTK3unJ9bmpWkXyr8P-91">
          <mxGeometry relative="1" as="geometry" />
        </mxCell>
        <mxCell id="p0wTK3unJ9bmpWkXyr8P-15" value="DATA_TIMEOUT" style="rounded=0;whiteSpace=wrap;html=1;" vertex="1" parent="WIyWlLk6GJQsqaUBKTNV-1">
          <mxGeometry x="560" y="520" width="150" height="80" as="geometry" />
        </mxCell>
        <mxCell id="p0wTK3unJ9bmpWkXyr8P-24" style="edgeStyle=orthogonalEdgeStyle;rounded=0;orthogonalLoop=1;jettySize=auto;html=1;" edge="1" parent="WIyWlLk6GJQsqaUBKTNV-1" source="p0wTK3unJ9bmpWkXyr8P-21" target="p0wTK3unJ9bmpWkXyr8P-23">
          <mxGeometry relative="1" as="geometry" />
        </mxCell>
        <mxCell id="p0wTK3unJ9bmpWkXyr8P-25" value="N" style="edgeStyle=orthogonalEdgeStyle;rounded=0;orthogonalLoop=1;jettySize=auto;html=1;" edge="1" parent="WIyWlLk6GJQsqaUBKTNV-1" source="p0wTK3unJ9bmpWkXyr8P-21" target="p0wTK3unJ9bmpWkXyr8P-23">
          <mxGeometry relative="1" as="geometry" />
        </mxCell>
        <mxCell id="p0wTK3unJ9bmpWkXyr8P-27" value="Y" style="edgeStyle=orthogonalEdgeStyle;rounded=0;orthogonalLoop=1;jettySize=auto;html=1;" edge="1" parent="WIyWlLk6GJQsqaUBKTNV-1" source="p0wTK3unJ9bmpWkXyr8P-21" target="p0wTK3unJ9bmpWkXyr8P-31">
          <mxGeometry relative="1" as="geometry">
            <mxPoint x="430" y="955" as="targetPoint" />
          </mxGeometry>
        </mxCell>
        <mxCell id="p0wTK3unJ9bmpWkXyr8P-21" value="length &amp;lt; 5 ?" style="rhombus;whiteSpace=wrap;html=1;" vertex="1" parent="WIyWlLk6GJQsqaUBKTNV-1">
          <mxGeometry x="280" y="900" width="100" height="110" as="geometry" />
        </mxCell>
        <mxCell id="p0wTK3unJ9bmpWkXyr8P-29" value="N" style="edgeStyle=orthogonalEdgeStyle;rounded=0;orthogonalLoop=1;jettySize=auto;html=1;" edge="1" parent="WIyWlLk6GJQsqaUBKTNV-1" source="p0wTK3unJ9bmpWkXyr8P-23" target="p0wTK3unJ9bmpWkXyr8P-28">
          <mxGeometry relative="1" as="geometry" />
        </mxCell>
        <mxCell id="p0wTK3unJ9bmpWkXyr8P-30" value="Y" style="edgeStyle=orthogonalEdgeStyle;rounded=0;orthogonalLoop=1;jettySize=auto;html=1;" edge="1" parent="WIyWlLk6GJQsqaUBKTNV-1" source="p0wTK3unJ9bmpWkXyr8P-23" target="p0wTK3unJ9bmpWkXyr8P-31">
          <mxGeometry relative="1" as="geometry">
            <mxPoint x="470" y="995" as="targetPoint" />
          </mxGeometry>
        </mxCell>
        <mxCell id="p0wTK3unJ9bmpWkXyr8P-23" value="crc32() != 0 ?" style="rhombus;whiteSpace=wrap;html=1;" vertex="1" parent="WIyWlLk6GJQsqaUBKTNV-1">
          <mxGeometry x="275" y="1080" width="110" height="110" as="geometry" />
        </mxCell>
        <mxCell id="p0wTK3unJ9bmpWkXyr8P-41" value="Y" style="edgeStyle=orthogonalEdgeStyle;rounded=0;orthogonalLoop=1;jettySize=auto;html=1;" edge="1" parent="WIyWlLk6GJQsqaUBKTNV-1" source="p0wTK3unJ9bmpWkXyr8P-28" target="p0wTK3unJ9bmpWkXyr8P-40">
          <mxGeometry relative="1" as="geometry" />
        </mxCell>
        <mxCell id="p0wTK3unJ9bmpWkXyr8P-116" value="N" style="edgeStyle=orthogonalEdgeStyle;rounded=0;orthogonalLoop=1;jettySize=auto;html=1;" edge="1" parent="WIyWlLk6GJQsqaUBKTNV-1" source="p0wTK3unJ9bmpWkXyr8P-28" target="p0wTK3unJ9bmpWkXyr8P-65">
          <mxGeometry relative="1" as="geometry" />
        </mxCell>
        <mxCell id="p0wTK3unJ9bmpWkXyr8P-28" value="r.kind == FRAME_DATA ?" style="rhombus;whiteSpace=wrap;html=1;" vertex="1" parent="WIyWlLk6GJQsqaUBKTNV-1">
          <mxGeometry x="240" y="1250" width="180" height="170" as="geometry" />
        </mxCell>
        <mxCell id="p0wTK3unJ9bmpWkXyr8P-33" style="edgeStyle=orthogonalEdgeStyle;rounded=0;orthogonalLoop=1;jettySize=auto;html=1;" edge="1" parent="WIyWlLk6GJQsqaUBKTNV-1" source="p0wTK3unJ9bmpWkXyr8P-31" target="p0wTK3unJ9bmpWkXyr8P-32">
          <mxGeometry relative="1" as="geometry" />
        </mxCell>
        <mxCell id="p0wTK3unJ9bmpWkXyr8P-31" value="dbg_event()" style="rounded=0;whiteSpace=wrap;html=1;" vertex="1" parent="WIyWlLk6GJQsqaUBKTNV-1">
          <mxGeometry x="430" y="925" width="120" height="60" as="geometry" />
        </mxCell>
        <mxCell id="p0wTK3unJ9bmpWkXyr8P-35" value="Y" style="edgeStyle=orthogonalEdgeStyle;rounded=0;orthogonalLoop=1;jettySize=auto;html=1;" edge="1" parent="WIyWlLk6GJQsqaUBKTNV-1" source="p0wTK3unJ9bmpWkXyr8P-32" target="p0wTK3unJ9bmpWkXyr8P-34">
          <mxGeometry relative="1" as="geometry" />
        </mxCell>
        <mxCell id="p0wTK3unJ9bmpWkXyr8P-37" style="edgeStyle=orthogonalEdgeStyle;rounded=0;orthogonalLoop=1;jettySize=auto;html=1;" edge="1" parent="WIyWlLk6GJQsqaUBKTNV-1" source="p0wTK3unJ9bmpWkXyr8P-32" target="p0wTK3unJ9bmpWkXyr8P-36">
          <mxGeometry relative="1" as="geometry" />
        </mxCell>
        <mxCell id="p0wTK3unJ9bmpWkXyr8P-32" value="no_nak==1?" style="rhombus;whiteSpace=wrap;html=1;" vertex="1" parent="WIyWlLk6GJQsqaUBKTNV-1">
          <mxGeometry x="590" y="915" width="80" height="80" as="geometry" />
        </mxCell>
        <mxCell id="p0wTK3unJ9bmpWkXyr8P-38" style="edgeStyle=orthogonalEdgeStyle;rounded=0;orthogonalLoop=1;jettySize=auto;html=1;" edge="1" parent="WIyWlLk6GJQsqaUBKTNV-1" source="p0wTK3unJ9bmpWkXyr8P-34" target="p0wTK3unJ9bmpWkXyr8P-36">
          <mxGeometry relative="1" as="geometry" />
        </mxCell>
        <mxCell id="p0wTK3unJ9bmpWkXyr8P-34" value="send_data()" style="rounded=0;whiteSpace=wrap;html=1;" vertex="1" parent="WIyWlLk6GJQsqaUBKTNV-1">
          <mxGeometry x="720" y="920" width="120" height="75" as="geometry" />
        </mxCell>
        <mxCell id="p0wTK3unJ9bmpWkXyr8P-36" value="break" style="rounded=0;whiteSpace=wrap;html=1;" vertex="1" parent="WIyWlLk6GJQsqaUBKTNV-1">
          <mxGeometry x="630" y="1050" width="120" height="60" as="geometry" />
        </mxCell>
        <mxCell id="p0wTK3unJ9bmpWkXyr8P-43" value="Y" style="edgeStyle=orthogonalEdgeStyle;rounded=0;orthogonalLoop=1;jettySize=auto;html=1;" edge="1" parent="WIyWlLk6GJQsqaUBKTNV-1" source="p0wTK3unJ9bmpWkXyr8P-40" target="p0wTK3unJ9bmpWkXyr8P-42">
          <mxGeometry relative="1" as="geometry" />
        </mxCell>
        <mxCell id="p0wTK3unJ9bmpWkXyr8P-47" value="N" style="edgeStyle=orthogonalEdgeStyle;rounded=0;orthogonalLoop=1;jettySize=auto;html=1;" edge="1" parent="WIyWlLk6GJQsqaUBKTNV-1" source="p0wTK3unJ9bmpWkXyr8P-40" target="p0wTK3unJ9bmpWkXyr8P-46">
          <mxGeometry relative="1" as="geometry" />
        </mxCell>
        <mxCell id="p0wTK3unJ9bmpWkXyr8P-40" value="r.seq != frame_expected ?" style="rhombus;whiteSpace=wrap;html=1;" vertex="1" parent="WIyWlLk6GJQsqaUBKTNV-1">
          <mxGeometry x="235" y="1490" width="190" height="160" as="geometry" />
        </mxCell>
        <mxCell id="p0wTK3unJ9bmpWkXyr8P-45" value="Y" style="edgeStyle=orthogonalEdgeStyle;rounded=0;orthogonalLoop=1;jettySize=auto;html=1;" edge="1" parent="WIyWlLk6GJQsqaUBKTNV-1" source="p0wTK3unJ9bmpWkXyr8P-42" target="p0wTK3unJ9bmpWkXyr8P-44">
          <mxGeometry relative="1" as="geometry" />
        </mxCell>
        <mxCell id="p0wTK3unJ9bmpWkXyr8P-48" value="N" style="edgeStyle=orthogonalEdgeStyle;rounded=0;orthogonalLoop=1;jettySize=auto;html=1;" edge="1" parent="WIyWlLk6GJQsqaUBKTNV-1" source="p0wTK3unJ9bmpWkXyr8P-42" target="p0wTK3unJ9bmpWkXyr8P-46">
          <mxGeometry relative="1" as="geometry" />
        </mxCell>
        <mxCell id="p0wTK3unJ9bmpWkXyr8P-42" value="no_nak == 1 ?" style="rhombus;whiteSpace=wrap;html=1;" vertex="1" parent="WIyWlLk6GJQsqaUBKTNV-1">
          <mxGeometry x="285" y="1720" width="90" height="80" as="geometry" />
        </mxCell>
        <mxCell id="p0wTK3unJ9bmpWkXyr8P-51" style="edgeStyle=orthogonalEdgeStyle;rounded=0;orthogonalLoop=1;jettySize=auto;html=1;" edge="1" parent="WIyWlLk6GJQsqaUBKTNV-1" source="p0wTK3unJ9bmpWkXyr8P-44" target="p0wTK3unJ9bmpWkXyr8P-50">
          <mxGeometry relative="1" as="geometry" />
        </mxCell>
        <mxCell id="p0wTK3unJ9bmpWkXyr8P-44" value="send_data()" style="rounded=0;whiteSpace=wrap;html=1;" vertex="1" parent="WIyWlLk6GJQsqaUBKTNV-1">
          <mxGeometry x="270" y="1860" width="120" height="60" as="geometry" />
        </mxCell>
        <mxCell id="p0wTK3unJ9bmpWkXyr8P-52" style="edgeStyle=orthogonalEdgeStyle;rounded=0;orthogonalLoop=1;jettySize=auto;html=1;entryX=1;entryY=0.5;entryDx=0;entryDy=0;" edge="1" parent="WIyWlLk6GJQsqaUBKTNV-1" source="p0wTK3unJ9bmpWkXyr8P-46" target="p0wTK3unJ9bmpWkXyr8P-50">
          <mxGeometry relative="1" as="geometry" />
        </mxCell>
        <mxCell id="p0wTK3unJ9bmpWkXyr8P-46" value="start_ack_timer()" style="rounded=0;whiteSpace=wrap;html=1;" vertex="1" parent="WIyWlLk6GJQsqaUBKTNV-1">
          <mxGeometry x="490" y="1660" width="120" height="60" as="geometry" />
        </mxCell>
        <mxCell id="p0wTK3unJ9bmpWkXyr8P-54" value="Y" style="edgeStyle=orthogonalEdgeStyle;rounded=0;orthogonalLoop=1;jettySize=auto;html=1;" edge="1" parent="WIyWlLk6GJQsqaUBKTNV-1" source="p0wTK3unJ9bmpWkXyr8P-50" target="p0wTK3unJ9bmpWkXyr8P-53">
          <mxGeometry relative="1" as="geometry" />
        </mxCell>
        <mxCell id="p0wTK3unJ9bmpWkXyr8P-50" value="between() == true ?" style="rhombus;whiteSpace=wrap;html=1;" vertex="1" parent="WIyWlLk6GJQsqaUBKTNV-1">
          <mxGeometry x="310" y="1990" width="140" height="110" as="geometry" />
        </mxCell>
        <mxCell id="p0wTK3unJ9bmpWkXyr8P-62" value="Y" style="edgeStyle=orthogonalEdgeStyle;rounded=0;orthogonalLoop=1;jettySize=auto;html=1;" edge="1" parent="WIyWlLk6GJQsqaUBKTNV-1" source="p0wTK3unJ9bmpWkXyr8P-53" target="p0wTK3unJ9bmpWkXyr8P-61">
          <mxGeometry relative="1" as="geometry" />
        </mxCell>
        <mxCell id="p0wTK3unJ9bmpWkXyr8P-53" value="arrived[seq] == false ?" style="rhombus;whiteSpace=wrap;html=1;" vertex="1" parent="WIyWlLk6GJQsqaUBKTNV-1">
          <mxGeometry x="302" y="2150" width="156" height="110" as="geometry" />
        </mxCell>
        <mxCell id="p0wTK3unJ9bmpWkXyr8P-59" style="edgeStyle=orthogonalEdgeStyle;rounded=0;orthogonalLoop=1;jettySize=auto;html=1;" edge="1" parent="WIyWlLk6GJQsqaUBKTNV-1" source="p0wTK3unJ9bmpWkXyr8P-55" target="p0wTK3unJ9bmpWkXyr8P-57">
          <mxGeometry relative="1" as="geometry">
            <mxPoint x="380" y="2580" as="sourcePoint" />
          </mxGeometry>
        </mxCell>
        <mxCell id="p0wTK3unJ9bmpWkXyr8P-55" value="put_packet()" style="rounded=0;whiteSpace=wrap;html=1;" vertex="1" parent="WIyWlLk6GJQsqaUBKTNV-1">
          <mxGeometry x="320" y="2520" width="120" height="60" as="geometry" />
        </mxCell>
        <mxCell id="p0wTK3unJ9bmpWkXyr8P-60" style="edgeStyle=orthogonalEdgeStyle;rounded=0;orthogonalLoop=1;jettySize=auto;html=1;" edge="1" parent="WIyWlLk6GJQsqaUBKTNV-1" source="p0wTK3unJ9bmpWkXyr8P-57" target="p0wTK3unJ9bmpWkXyr8P-58">
          <mxGeometry relative="1" as="geometry" />
        </mxCell>
        <mxCell id="p0wTK3unJ9bmpWkXyr8P-57" value="inc(frame_expected)" style="rounded=0;whiteSpace=wrap;html=1;" vertex="1" parent="WIyWlLk6GJQsqaUBKTNV-1">
          <mxGeometry x="320" y="2610" width="120" height="60" as="geometry" />
        </mxCell>
        <mxCell id="p0wTK3unJ9bmpWkXyr8P-64" style="edgeStyle=orthogonalEdgeStyle;rounded=0;orthogonalLoop=1;jettySize=auto;html=1;entryX=0;entryY=0.5;entryDx=0;entryDy=0;" edge="1" parent="WIyWlLk6GJQsqaUBKTNV-1" source="p0wTK3unJ9bmpWkXyr8P-58" target="p0wTK3unJ9bmpWkXyr8P-61">
          <mxGeometry relative="1" as="geometry">
            <Array as="points">
              <mxPoint x="227" y="2730" />
              <mxPoint x="227" y="2375" />
            </Array>
          </mxGeometry>
        </mxCell>
        <mxCell id="p0wTK3unJ9bmpWkXyr8P-58" value="inc(too_far)" style="rounded=0;whiteSpace=wrap;html=1;" vertex="1" parent="WIyWlLk6GJQsqaUBKTNV-1">
          <mxGeometry x="320" y="2700" width="120" height="60" as="geometry" />
        </mxCell>
        <mxCell id="p0wTK3unJ9bmpWkXyr8P-63" value="Y" style="edgeStyle=orthogonalEdgeStyle;rounded=0;orthogonalLoop=1;jettySize=auto;html=1;" edge="1" parent="WIyWlLk6GJQsqaUBKTNV-1" source="p0wTK3unJ9bmpWkXyr8P-61" target="p0wTK3unJ9bmpWkXyr8P-55">
          <mxGeometry relative="1" as="geometry" />
        </mxCell>
        <mxCell id="p0wTK3unJ9bmpWkXyr8P-66" value="N" style="edgeStyle=orthogonalEdgeStyle;rounded=0;orthogonalLoop=1;jettySize=auto;html=1;entryX=1;entryY=0.5;entryDx=0;entryDy=0;" edge="1" parent="WIyWlLk6GJQsqaUBKTNV-1" source="p0wTK3unJ9bmpWkXyr8P-61" target="p0wTK3unJ9bmpWkXyr8P-65">
          <mxGeometry relative="1" as="geometry">
            <Array as="points">
              <mxPoint x="533" y="2375" />
              <mxPoint x="533" y="2380" />
              <mxPoint x="1150" y="2380" />
              <mxPoint x="1150" y="1335" />
            </Array>
          </mxGeometry>
        </mxCell>
        <mxCell id="p0wTK3unJ9bmpWkXyr8P-61" value="arrived[frame_expected%NR_BUFS] == 1 ？&amp;nbsp;" style="rhombus;whiteSpace=wrap;html=1;" vertex="1" parent="WIyWlLk6GJQsqaUBKTNV-1">
          <mxGeometry x="247" y="2290" width="266" height="170" as="geometry" />
        </mxCell>
        <mxCell id="p0wTK3unJ9bmpWkXyr8P-68" value="Y" style="edgeStyle=orthogonalEdgeStyle;rounded=0;orthogonalLoop=1;jettySize=auto;html=1;" edge="1" parent="WIyWlLk6GJQsqaUBKTNV-1" source="p0wTK3unJ9bmpWkXyr8P-65" target="p0wTK3unJ9bmpWkXyr8P-67">
          <mxGeometry relative="1" as="geometry" />
        </mxCell>
        <mxCell id="p0wTK3unJ9bmpWkXyr8P-73" value="N" style="edgeStyle=orthogonalEdgeStyle;rounded=0;orthogonalLoop=1;jettySize=auto;html=1;entryX=0;entryY=0.5;entryDx=0;entryDy=0;exitX=0;exitY=0.5;exitDx=0;exitDy=0;" edge="1" parent="WIyWlLk6GJQsqaUBKTNV-1" source="p0wTK3unJ9bmpWkXyr8P-65" target="p0wTK3unJ9bmpWkXyr8P-71">
          <mxGeometry relative="1" as="geometry">
            <Array as="points">
              <mxPoint x="805" y="1335" />
              <mxPoint x="805" y="1830" />
            </Array>
          </mxGeometry>
        </mxCell>
        <mxCell id="p0wTK3unJ9bmpWkXyr8P-65" value="r.kind == FRAME_NAK ?" style="rhombus;whiteSpace=wrap;html=1;" vertex="1" parent="WIyWlLk6GJQsqaUBKTNV-1">
          <mxGeometry x="830" y="1280" width="120" height="110" as="geometry" />
        </mxCell>
        <mxCell id="p0wTK3unJ9bmpWkXyr8P-70" value="Y" style="edgeStyle=orthogonalEdgeStyle;rounded=0;orthogonalLoop=1;jettySize=auto;html=1;" edge="1" parent="WIyWlLk6GJQsqaUBKTNV-1" source="p0wTK3unJ9bmpWkXyr8P-67" target="p0wTK3unJ9bmpWkXyr8P-69">
          <mxGeometry relative="1" as="geometry" />
        </mxCell>
        <mxCell id="p0wTK3unJ9bmpWkXyr8P-74" value="N" style="edgeStyle=orthogonalEdgeStyle;rounded=0;orthogonalLoop=1;jettySize=auto;html=1;entryX=0;entryY=0.5;entryDx=0;entryDy=0;" edge="1" parent="WIyWlLk6GJQsqaUBKTNV-1" source="p0wTK3unJ9bmpWkXyr8P-67" target="p0wTK3unJ9bmpWkXyr8P-71">
          <mxGeometry relative="1" as="geometry">
            <Array as="points">
              <mxPoint x="805" y="1545" />
              <mxPoint x="805" y="1830" />
            </Array>
          </mxGeometry>
        </mxCell>
        <mxCell id="p0wTK3unJ9bmpWkXyr8P-67" value="between() == true ?" style="rhombus;whiteSpace=wrap;html=1;" vertex="1" parent="WIyWlLk6GJQsqaUBKTNV-1">
          <mxGeometry x="820" y="1490" width="140" height="110" as="geometry" />
        </mxCell>
        <mxCell id="p0wTK3unJ9bmpWkXyr8P-72" style="edgeStyle=orthogonalEdgeStyle;rounded=0;orthogonalLoop=1;jettySize=auto;html=1;" edge="1" parent="WIyWlLk6GJQsqaUBKTNV-1" source="p0wTK3unJ9bmpWkXyr8P-69" target="p0wTK3unJ9bmpWkXyr8P-71">
          <mxGeometry relative="1" as="geometry" />
        </mxCell>
        <mxCell id="p0wTK3unJ9bmpWkXyr8P-69" value="send_data()" style="rounded=0;whiteSpace=wrap;html=1;" vertex="1" parent="WIyWlLk6GJQsqaUBKTNV-1">
          <mxGeometry x="830" y="1650" width="120" height="60" as="geometry" />
        </mxCell>
        <mxCell id="p0wTK3unJ9bmpWkXyr8P-77" value="Y" style="edgeStyle=orthogonalEdgeStyle;rounded=0;orthogonalLoop=1;jettySize=auto;html=1;" edge="1" parent="WIyWlLk6GJQsqaUBKTNV-1" source="p0wTK3unJ9bmpWkXyr8P-71" target="p0wTK3unJ9bmpWkXyr8P-76">
          <mxGeometry relative="1" as="geometry" />
        </mxCell>
        <mxCell id="p0wTK3unJ9bmpWkXyr8P-84" value="N" style="edgeStyle=orthogonalEdgeStyle;rounded=0;orthogonalLoop=1;jettySize=auto;html=1;entryX=1;entryY=0.5;entryDx=0;entryDy=0;" edge="1" parent="WIyWlLk6GJQsqaUBKTNV-1" source="p0wTK3unJ9bmpWkXyr8P-71" target="p0wTK3unJ9bmpWkXyr8P-82">
          <mxGeometry relative="1" as="geometry">
            <Array as="points">
              <mxPoint x="995" y="1830" />
              <mxPoint x="995" y="2200" />
            </Array>
          </mxGeometry>
        </mxCell>
        <mxCell id="p0wTK3unJ9bmpWkXyr8P-71" value="between() == 1 ?" style="rhombus;whiteSpace=wrap;html=1;" vertex="1" parent="WIyWlLk6GJQsqaUBKTNV-1">
          <mxGeometry x="815" y="1770" width="150" height="120" as="geometry" />
        </mxCell>
        <mxCell id="p0wTK3unJ9bmpWkXyr8P-79" style="edgeStyle=orthogonalEdgeStyle;rounded=0;orthogonalLoop=1;jettySize=auto;html=1;" edge="1" parent="WIyWlLk6GJQsqaUBKTNV-1" source="p0wTK3unJ9bmpWkXyr8P-76" target="p0wTK3unJ9bmpWkXyr8P-78">
          <mxGeometry relative="1" as="geometry" />
        </mxCell>
        <mxCell id="p0wTK3unJ9bmpWkXyr8P-76" value="stop_timer()" style="rounded=0;whiteSpace=wrap;html=1;" vertex="1" parent="WIyWlLk6GJQsqaUBKTNV-1">
          <mxGeometry x="830" y="1960" width="120" height="60" as="geometry" />
        </mxCell>
        <mxCell id="p0wTK3unJ9bmpWkXyr8P-81" style="edgeStyle=orthogonalEdgeStyle;rounded=0;orthogonalLoop=1;jettySize=auto;html=1;entryX=0;entryY=0.5;entryDx=0;entryDy=0;" edge="1" parent="WIyWlLk6GJQsqaUBKTNV-1" source="p0wTK3unJ9bmpWkXyr8P-78" target="p0wTK3unJ9bmpWkXyr8P-71">
          <mxGeometry relative="1" as="geometry">
            <Array as="points">
              <mxPoint x="805" y="2100" />
              <mxPoint x="805" y="1830" />
            </Array>
          </mxGeometry>
        </mxCell>
        <mxCell id="p0wTK3unJ9bmpWkXyr8P-83" value="" style="edgeStyle=orthogonalEdgeStyle;rounded=0;orthogonalLoop=1;jettySize=auto;html=1;" edge="1" parent="WIyWlLk6GJQsqaUBKTNV-1" source="p0wTK3unJ9bmpWkXyr8P-78" target="p0wTK3unJ9bmpWkXyr8P-82">
          <mxGeometry relative="1" as="geometry" />
        </mxCell>
        <mxCell id="p0wTK3unJ9bmpWkXyr8P-78" value="inc(ack_expected)" style="rounded=0;whiteSpace=wrap;html=1;" vertex="1" parent="WIyWlLk6GJQsqaUBKTNV-1">
          <mxGeometry x="830" y="2070" width="120" height="60" as="geometry" />
        </mxCell>
        <mxCell id="p0wTK3unJ9bmpWkXyr8P-82" value="break" style="rounded=0;whiteSpace=wrap;html=1;" vertex="1" parent="WIyWlLk6GJQsqaUBKTNV-1">
          <mxGeometry x="830" y="2180" width="120" height="60" as="geometry" />
        </mxCell>
        <mxCell id="p0wTK3unJ9bmpWkXyr8P-87" style="edgeStyle=orthogonalEdgeStyle;rounded=0;orthogonalLoop=1;jettySize=auto;html=1;" edge="1" parent="WIyWlLk6GJQsqaUBKTNV-1" source="p0wTK3unJ9bmpWkXyr8P-86" target="p0wTK3unJ9bmpWkXyr8P-88">
          <mxGeometry relative="1" as="geometry">
            <mxPoint x="950" y="700" as="targetPoint" />
          </mxGeometry>
        </mxCell>
        <mxCell id="p0wTK3unJ9bmpWkXyr8P-86" value="dbg_event()" style="rounded=0;whiteSpace=wrap;html=1;" vertex="1" parent="WIyWlLk6GJQsqaUBKTNV-1">
          <mxGeometry x="780" y="670" width="120" height="60" as="geometry" />
        </mxCell>
        <mxCell id="p0wTK3unJ9bmpWkXyr8P-90" value="" style="edgeStyle=orthogonalEdgeStyle;rounded=0;orthogonalLoop=1;jettySize=auto;html=1;" edge="1" parent="WIyWlLk6GJQsqaUBKTNV-1" source="p0wTK3unJ9bmpWkXyr8P-88" target="p0wTK3unJ9bmpWkXyr8P-89">
          <mxGeometry relative="1" as="geometry" />
        </mxCell>
        <mxCell id="p0wTK3unJ9bmpWkXyr8P-88" value="send_data()" style="rounded=0;whiteSpace=wrap;html=1;" vertex="1" parent="WIyWlLk6GJQsqaUBKTNV-1">
          <mxGeometry x="940" y="670" width="120" height="60" as="geometry" />
        </mxCell>
        <mxCell id="p0wTK3unJ9bmpWkXyr8P-89" value="break" style="whiteSpace=wrap;html=1;rounded=0;" vertex="1" parent="WIyWlLk6GJQsqaUBKTNV-1">
          <mxGeometry x="1140" y="670" width="120" height="60" as="geometry" />
        </mxCell>
        <mxCell id="p0wTK3unJ9bmpWkXyr8P-94" value="" style="edgeStyle=orthogonalEdgeStyle;rounded=0;orthogonalLoop=1;jettySize=auto;html=1;" edge="1" parent="WIyWlLk6GJQsqaUBKTNV-1" source="p0wTK3unJ9bmpWkXyr8P-91" target="p0wTK3unJ9bmpWkXyr8P-93">
          <mxGeometry relative="1" as="geometry" />
        </mxCell>
        <mxCell id="p0wTK3unJ9bmpWkXyr8P-91" value="dbg_event()" style="whiteSpace=wrap;html=1;rounded=0;" vertex="1" parent="WIyWlLk6GJQsqaUBKTNV-1">
          <mxGeometry x="805" y="530" width="120" height="60" as="geometry" />
        </mxCell>
        <mxCell id="p0wTK3unJ9bmpWkXyr8P-96" value="Y" style="edgeStyle=orthogonalEdgeStyle;rounded=0;orthogonalLoop=1;jettySize=auto;html=1;" edge="1" parent="WIyWlLk6GJQsqaUBKTNV-1" source="p0wTK3unJ9bmpWkXyr8P-93" target="p0wTK3unJ9bmpWkXyr8P-95">
          <mxGeometry relative="1" as="geometry" />
        </mxCell>
        <mxCell id="p0wTK3unJ9bmpWkXyr8P-99" value="N" style="edgeStyle=orthogonalEdgeStyle;rounded=0;orthogonalLoop=1;jettySize=auto;html=1;" edge="1" parent="WIyWlLk6GJQsqaUBKTNV-1" source="p0wTK3unJ9bmpWkXyr8P-93" target="p0wTK3unJ9bmpWkXyr8P-98">
          <mxGeometry relative="1" as="geometry">
            <Array as="points">
              <mxPoint x="1088" y="440" />
            </Array>
          </mxGeometry>
        </mxCell>
        <mxCell id="p0wTK3unJ9bmpWkXyr8P-93" value="between() != ture ?" style="rhombus;whiteSpace=wrap;html=1;rounded=0;" vertex="1" parent="WIyWlLk6GJQsqaUBKTNV-1">
          <mxGeometry x="1025" y="520" width="125" height="80" as="geometry" />
        </mxCell>
        <mxCell id="p0wTK3unJ9bmpWkXyr8P-100" style="edgeStyle=orthogonalEdgeStyle;rounded=0;orthogonalLoop=1;jettySize=auto;html=1;" edge="1" parent="WIyWlLk6GJQsqaUBKTNV-1" source="p0wTK3unJ9bmpWkXyr8P-95" target="p0wTK3unJ9bmpWkXyr8P-98">
          <mxGeometry relative="1" as="geometry" />
        </mxCell>
        <mxCell id="p0wTK3unJ9bmpWkXyr8P-95" value="arg = arg + NR_BUFS" style="whiteSpace=wrap;html=1;rounded=0;" vertex="1" parent="WIyWlLk6GJQsqaUBKTNV-1">
          <mxGeometry x="1232.5" y="530" width="120" height="60" as="geometry" />
        </mxCell>
        <mxCell id="p0wTK3unJ9bmpWkXyr8P-102" value="" style="edgeStyle=orthogonalEdgeStyle;rounded=0;orthogonalLoop=1;jettySize=auto;html=1;" edge="1" parent="WIyWlLk6GJQsqaUBKTNV-1" source="p0wTK3unJ9bmpWkXyr8P-98" target="p0wTK3unJ9bmpWkXyr8P-101">
          <mxGeometry relative="1" as="geometry" />
        </mxCell>
        <mxCell id="p0wTK3unJ9bmpWkXyr8P-98" value="send_data()" style="rounded=0;whiteSpace=wrap;html=1;" vertex="1" parent="WIyWlLk6GJQsqaUBKTNV-1">
          <mxGeometry x="1232.5" y="410" width="120" height="60" as="geometry" />
        </mxCell>
        <mxCell id="p0wTK3unJ9bmpWkXyr8P-101" value="break" style="whiteSpace=wrap;html=1;rounded=0;" vertex="1" parent="WIyWlLk6GJQsqaUBKTNV-1">
          <mxGeometry x="1432.5" y="410" width="120" height="60" as="geometry" />
        </mxCell>
        <mxCell id="p0wTK3unJ9bmpWkXyr8P-106" value="" style="edgeStyle=orthogonalEdgeStyle;rounded=0;orthogonalLoop=1;jettySize=auto;html=1;" edge="1" parent="WIyWlLk6GJQsqaUBKTNV-1" source="p0wTK3unJ9bmpWkXyr8P-103" target="p0wTK3unJ9bmpWkXyr8P-105">
          <mxGeometry relative="1" as="geometry">
            <mxPoint x="-322.5" y="700" as="sourcePoint" />
          </mxGeometry>
        </mxCell>
        <mxCell id="p0wTK3unJ9bmpWkXyr8P-103" value="get_packet()" style="whiteSpace=wrap;html=1;rounded=0;" vertex="1" parent="WIyWlLk6GJQsqaUBKTNV-1">
          <mxGeometry x="-297.5" y="670" width="120" height="60" as="geometry" />
        </mxCell>
        <mxCell id="p0wTK3unJ9bmpWkXyr8P-108" value="" style="edgeStyle=orthogonalEdgeStyle;rounded=0;orthogonalLoop=1;jettySize=auto;html=1;" edge="1" parent="WIyWlLk6GJQsqaUBKTNV-1" source="p0wTK3unJ9bmpWkXyr8P-105" target="p0wTK3unJ9bmpWkXyr8P-107">
          <mxGeometry relative="1" as="geometry" />
        </mxCell>
        <mxCell id="p0wTK3unJ9bmpWkXyr8P-105" value="send_data()" style="whiteSpace=wrap;html=1;rounded=0;" vertex="1" parent="WIyWlLk6GJQsqaUBKTNV-1">
          <mxGeometry x="-522.5" y="670" width="120" height="60" as="geometry" />
        </mxCell>
        <mxCell id="p0wTK3unJ9bmpWkXyr8P-110" value="" style="edgeStyle=orthogonalEdgeStyle;rounded=0;orthogonalLoop=1;jettySize=auto;html=1;" edge="1" parent="WIyWlLk6GJQsqaUBKTNV-1" source="p0wTK3unJ9bmpWkXyr8P-107" target="p0wTK3unJ9bmpWkXyr8P-109">
          <mxGeometry relative="1" as="geometry" />
        </mxCell>
        <mxCell id="p0wTK3unJ9bmpWkXyr8P-107" value="inc(next_frame_to_send)" style="whiteSpace=wrap;html=1;rounded=0;" vertex="1" parent="WIyWlLk6GJQsqaUBKTNV-1">
          <mxGeometry x="-747.5" y="670" width="145" height="60" as="geometry" />
        </mxCell>
        <mxCell id="p0wTK3unJ9bmpWkXyr8P-109" value="break" style="whiteSpace=wrap;html=1;rounded=0;" vertex="1" parent="WIyWlLk6GJQsqaUBKTNV-1">
          <mxGeometry x="-960" y="670" width="120" height="60" as="geometry" />
        </mxCell>
        <mxCell id="p0wTK3unJ9bmpWkXyr8P-114" value="" style="edgeStyle=orthogonalEdgeStyle;rounded=0;orthogonalLoop=1;jettySize=auto;html=1;" edge="1" parent="WIyWlLk6GJQsqaUBKTNV-1" source="p0wTK3unJ9bmpWkXyr8P-111" target="p0wTK3unJ9bmpWkXyr8P-113">
          <mxGeometry relative="1" as="geometry" />
        </mxCell>
        <mxCell id="p0wTK3unJ9bmpWkXyr8P-111" value="phl_ready = 1" style="whiteSpace=wrap;html=1;rounded=0;" vertex="1" parent="WIyWlLk6GJQsqaUBKTNV-1">
          <mxGeometry x="-285" y="530" width="120" height="60" as="geometry" />
        </mxCell>
        <mxCell id="p0wTK3unJ9bmpWkXyr8P-113" value="break" style="whiteSpace=wrap;html=1;rounded=0;" vertex="1" parent="WIyWlLk6GJQsqaUBKTNV-1">
          <mxGeometry x="-485" y="530" width="120" height="60" as="geometry" />
        </mxCell>
      </root>
    </mxGraphModel>
  </diagram>
</mxfile>
